<?xml version="1.0" encoding="UTF-8" standalone="no"?>
<!-- Created with Inkscape (http://www.inkscape.org/) -->

<svg
   width="137.72366mm"
   height="130.14984mm"
   viewBox="0 0 137.72366 130.14984"
   version="1.1"
   id="svg1"
   xml:space="preserve"
   inkscape:version="1.4.2 (f4327f4, 2025-05-13)"
   sodipodi:docname="dibujo.svg"
   xmlns:inkscape="http://www.inkscape.org/namespaces/inkscape"
   xmlns:sodipodi="http://sodipodi.sourceforge.net/DTD/sodipodi-0.dtd"
   xmlns="http://www.w3.org/2000/svg"
   xmlns:svg="http://www.w3.org/2000/svg"><sodipodi:namedview
     id="namedview1"
     pagecolor="#ffffff"
     bordercolor="#000000"
     borderopacity="0.25"
     inkscape:showpageshadow="2"
     inkscape:pageopacity="0.0"
     inkscape:pagecheckerboard="0"
     inkscape:deskcolor="#d1d1d1"
     inkscape:document-units="mm"
     inkscape:zoom="0.68862935"
     inkscape:cx="396.43968"
     inkscape:cy="561.25984"
     inkscape:window-width="1920"
     inkscape:window-height="991"
     inkscape:window-x="-9"
     inkscape:window-y="-9"
     inkscape:window-maximized="1"
     inkscape:current-layer="layer1"><inkscape:page
       x="0"
       y="0"
       width="137.72366"
       height="130.14984"
       id="page2"
       margin="0"
       bleed="0" /></sodipodi:namedview><defs
     id="defs1" /><g
     inkscape:label="Capa 1"
     inkscape:groupmode="layer"
     id="layer1"
     transform="translate(-32.436849,-75.774711)"><g
       style="fill:#003c77;fill-opacity:1"
       id="g1"
       transform="matrix(8.6077286,0,0,8.1343646,32.436848,75.774713)"><path
         d="M 8,16 A 8,8 0 1 0 8,0 8,8 0 0 0 8,16 m 0.93,-9.412 -1,4.705 c -0.07,0.34 0.029,0.533 0.304,0.533 0.194,0 0.487,-0.07 0.686,-0.246 l -0.088,0.416 c -0.287,0.346 -0.92,0.598 -1.465,0.598 -0.703,0 -1.002,-0.422 -0.808,-1.319 L 7.297,7.807 C 7.361,7.514 7.303,7.408 7.01,7.337 L 6.559,7.256 6.641,6.875 8.931,6.588 Z M 8,5.5 a 1,1 0 1 1 0,-2 1,1 0 0 1 0,2"
         id="path1"
         style="fill:#003c77;fill-opacity:1" /></g></g></svg>
